<svg width="104" height="23" viewBox="0 0 104 23" fill="none" xmlns="http://www.w3.org/2000/svg">
<path d="M17.8585 4.41881C17.8585 4.37082 17.8396 4.31914 17.8093 4.26376V4.26007L15.9336 0.904432C15.8806 0.819526 15.801 0.767844 15.7214 0.767844C15.6759 0.767844 15.6305 0.786302 15.585 0.819526L15.4562 0.930273C15.2932 1.07794 15.1227 1.07794 14.9408 1.07794H2.9139C2.73202 1.07794 2.5615 1.07794 2.39857 0.926582L2.26973 0.815835C2.22426 0.78261 2.17879 0.764153 2.13332 0.764153C2.05375 0.764153 1.97418 0.815834 1.92113 0.904432L0.0492597 4.26007C0.018946 4.31544 0 4.36713 0 4.41512C0 4.49633 0.0492597 4.56278 0.14399 4.61815L1.12539 5.13128C1.28833 5.22357 1.39822 5.19404 1.49295 5.03899L1.56873 4.91348C2.43646 3.459 3.84604 2.75022 5.86948 2.75022H7.11613V14.6186C7.11613 16.0731 6.55154 16.8373 5.43751 16.8889H5.29352C5.11543 16.8889 5.03964 16.9665 5.03964 17.1363V17.8266C5.03964 18.0001 5.11922 18.0739 5.29352 18.0739H12.5233C12.7014 18.0739 12.7772 17.9964 12.7772 17.8266V17.1363C12.7772 16.9628 12.6976 16.8889 12.5233 16.8889H12.3642C11.2464 16.8373 10.6818 16.0731 10.6818 14.6186V2.74653H11.989C14.0125 2.74653 15.4221 3.45531 16.2898 4.90979L16.3656 5.0353C16.4565 5.19035 16.574 5.21988 16.7293 5.13128L17.7183 4.61446C17.8093 4.56278 17.8585 4.49264 17.8585 4.41881Z" fill="white"/>
<path d="M26.4714 8.22113C26.7442 7.80398 26.1569 7.21702 25.9485 7.05459C25.4142 6.62637 24.6109 6.41226 23.9705 6.41226C22.2919 6.41226 20.7421 7.46067 19.9199 9.1514L19.6091 9.78636L20.276 6.11324C20.276 6.11324 20.2723 6.11324 20.2723 6.11693L20.2533 6.1317C19.6395 6.56361 17.8661 7.47174 15.5585 7.82244C15.3387 7.85566 15.3008 7.91473 15.3008 8.03286V8.80809C15.297 8.9336 15.3236 8.99267 15.4903 9.01113C16.8544 9.1551 16.9681 10.4398 16.9681 11.7429V14.6223C16.9681 15.2794 16.8165 15.8368 16.5285 16.2318C16.214 16.6638 15.7404 16.8926 15.1644 16.8926H15.1076C14.9295 16.8926 14.8537 16.9702 14.8537 17.14V17.8266C14.8537 18.0001 14.9333 18.0739 15.1076 18.0739H21.9471C22.1252 18.0739 22.201 17.9964 22.201 17.8266V17.14C22.201 16.9665 22.1214 16.8926 21.9471 16.8926H21.9054C20.78 16.8926 20.079 16.0214 20.079 14.6186V10.3733L20.0866 10.3549C20.4162 9.56486 21.3749 8.31711 22.5344 8.31711C23.2127 8.31711 24.2358 9.40981 24.285 11.1855C24.2926 11.3848 24.4101 11.5325 24.5275 11.5509C24.698 11.5768 24.8345 11.5214 24.9785 11.2039C25.3195 10.4656 25.8197 9.22524 26.4714 8.22113ZM39.6882 16.2614C38.4415 16.1285 38.3506 15.0099 38.3202 13.932V6.52301C38.3127 6.5267 38.3089 6.53039 38.3013 6.53777C38.2937 6.54146 38.2861 6.54885 38.2824 6.55254C38.2407 6.58207 38.2028 6.60791 38.1611 6.63744C37.7102 6.95861 37.1494 7.35361 35.9368 7.84459L35.88 7.86674L35.8345 7.82613C34.8645 6.97338 33.5686 6.51931 32.0832 6.51931C29.4762 6.51931 26.6874 8.06977 26.6874 12.4221C26.6874 14.3676 27.3012 15.9624 28.4683 17.0366C29.3739 17.8709 30.6206 18.3693 31.8028 18.3693C34.2582 18.3693 35.1032 16.8003 35.304 16.3167L35.5882 15.6375L35.2245 18.3693C35.2775 18.3656 35.3381 18.3471 35.3609 18.336L35.3685 18.3323L35.3912 18.3213C36.4332 17.8709 37.4184 17.4464 39.7298 17.4464C39.9496 17.4464 39.9799 17.343 39.9799 17.2396L39.8738 16.4644C39.8852 16.3389 39.8587 16.2798 39.6882 16.2614ZM35.232 14.9509L35.2283 14.9656C35.2245 14.9804 34.6637 16.5382 32.8714 16.5382C31.8824 16.5382 31.045 16.0805 30.4425 15.2167C29.84 14.3491 29.5217 13.1272 29.5217 11.6801C29.5217 9.17725 30.5562 7.85197 32.5114 7.85197C33.3602 7.85197 34.0384 8.1473 34.5273 8.73426C34.9516 9.24369 35.1449 9.87495 35.232 10.3142V14.9509ZM65.2577 16.2614C64.0111 16.1285 63.9201 15.0099 63.8898 13.932V6.52301C63.8822 6.5267 63.8784 6.53039 63.8709 6.53777C63.8633 6.54146 63.8557 6.54885 63.8519 6.55254C63.8102 6.58207 63.7724 6.60791 63.7307 6.63744C63.2798 6.95861 62.7189 7.35361 61.5064 7.84459L61.4496 7.86674L61.4041 7.82613C60.4341 6.97338 59.1381 6.51931 57.6528 6.51931C55.0458 6.51931 52.2569 8.06977 52.2569 12.4221C52.2569 14.3676 52.8708 15.9624 54.0379 17.0366C54.9435 17.8709 56.1901 18.3693 57.3724 18.3693C59.8278 18.3693 60.6728 16.8003 60.8736 16.3167L61.1578 15.6375L60.794 18.3693C60.8471 18.3656 60.9077 18.3471 60.9304 18.336L60.938 18.3323L60.9608 18.3213C62.0028 17.8709 62.988 17.4464 65.2994 17.4464C65.5192 17.4464 65.5495 17.343 65.5495 17.2396L65.4434 16.4644C65.4548 16.3389 65.4244 16.2798 65.2577 16.2614ZM60.8016 14.9509L60.7978 14.9656C60.794 14.9804 60.2332 16.5382 58.4409 16.5382C57.452 16.5382 56.6145 16.0805 56.0121 15.2167C55.4096 14.3491 55.0913 13.1272 55.0913 11.6801C55.0913 9.17725 56.1257 7.85197 58.081 7.85197C58.9297 7.85197 59.608 8.1473 60.0968 8.73426C60.5212 9.24369 60.7145 9.87495 60.8016 10.3142V14.9509ZM39.4532 7.98487C40.1315 7.98487 40.3892 8.39463 40.9007 9.48365L44.8566 17.8709C44.9248 18.0149 45.0196 18.0739 45.1787 18.0739H46.4178C46.5807 18.0739 46.6717 18.0149 46.7399 17.8709L50.7072 9.46888C51.2377 8.34295 51.5938 7.98118 52.1736 7.98118H52.5108C52.6889 7.98118 52.7647 7.90365 52.7647 7.73384V7.04721C52.7647 6.87371 52.6851 6.79987 52.5108 6.79987H48.1987C48.0206 6.79987 47.9448 6.8774 47.9448 7.04721V7.73384C47.9448 7.90735 48.0244 7.98118 48.1987 7.98118H48.661C49.0626 7.98118 49.2786 8.18052 49.2786 8.56075C49.2786 8.98528 49.021 9.59439 48.7103 10.2921L46.6338 14.9509L44.3754 10.2995C44.0419 9.61654 43.8904 9.12556 43.8904 8.7601C43.8904 8.40571 44.0457 7.98856 44.7808 7.98856H44.8263C44.9968 7.98487 45.0764 7.91104 45.0764 7.74122V7.05459C45.0764 6.88109 44.9968 6.80726 44.8225 6.80726H39.3964C39.2183 6.80726 39.1425 6.88478 39.1425 7.05459V7.74122C39.1425 7.91473 39.2221 7.98856 39.3964 7.98856H39.4532V7.98487ZM83.6354 7.98487H83.9726C84.1507 7.98487 84.2265 7.90735 84.2265 7.73753V7.0509C84.2265 6.8774 84.1469 6.80357 83.9726 6.80357H79.4256C79.2475 6.80357 79.1717 6.88109 79.1717 7.0509V7.73753C79.1717 7.91104 79.2513 7.98487 79.4256 7.98487H79.8424C80.2554 7.98487 80.4752 8.18421 80.4752 8.56445C80.4752 9.00005 80.1796 9.64977 79.8878 10.2293L78.0918 13.8139L76.4321 10.2736C76.1631 9.70145 75.9016 9.1108 75.9016 8.67519C75.9016 8.21744 76.1858 7.98487 76.7428 7.98487H76.7883C76.9588 7.98118 77.0384 7.90735 77.0384 7.73753V7.0509C77.0384 6.88109 76.9626 6.80357 76.7883 6.80357H71.3545C71.1765 6.80357 71.1007 6.88109 71.1007 7.0509V7.73753C71.1007 7.91104 71.1802 7.98487 71.3545 7.98487H71.4114C72.0631 7.98487 72.2981 8.35033 72.8589 9.48365L76.3298 16.505L73.6811 22.0387C73.6432 22.1162 73.6357 22.1827 73.6546 22.238C73.6735 22.2934 73.7266 22.3377 73.8024 22.3709L75.0111 22.969C75.1589 23.0354 75.2688 22.9948 75.3446 22.8508L82.1652 9.47626C82.7032 8.34664 83.0594 7.98487 83.6354 7.98487ZM87.5724 17.7528C88.3757 18.133 89.304 18.336 90.2589 18.336C93.1652 18.336 95.1167 16.8816 95.1167 14.7146C95.1167 13.5591 94.5672 12.6769 93.4343 12.0161C92.4453 11.4402 91.2024 11.1301 90.1035 10.8606L89.8762 10.8052C88.5121 10.4656 87.1821 10.0448 87.1821 8.98898C87.1821 8.19898 87.8338 7.72646 88.9251 7.72646C89.4707 7.72646 91.3957 7.89996 93.2145 10.1075C93.3168 10.233 93.385 10.2515 93.4343 10.2515C93.4759 10.2515 93.5214 10.2367 93.5745 10.2109L94.1428 9.90818C94.2717 9.84173 94.2793 9.79374 94.2793 9.74944C94.2793 9.70514 94.2641 9.64608 94.2262 9.55748L93.0478 6.64483C92.9871 6.49717 92.8962 6.43441 92.7333 6.43441H92.1156C92.0398 6.43441 91.983 6.44917 91.9527 6.47871C91.9299 6.50086 91.9186 6.53408 91.9186 6.57838C91.9186 6.6153 91.9261 6.6559 91.9413 6.70389C92.0588 7.10258 91.9792 7.20595 91.9565 7.23917C91.9224 7.28347 91.8731 7.30562 91.8163 7.30562C91.7708 7.30562 91.7215 7.29085 91.6647 7.25763C91.2176 7.00291 90.0012 6.5267 88.5992 6.5267C86.2461 6.5267 84.6622 7.74861 84.6622 9.56486C84.6622 11.1227 85.4125 12.3741 89.0843 13.441C89.2434 13.489 89.4101 13.5333 89.5731 13.5813C91.0471 13.9947 92.7143 14.4636 92.7143 15.5932C92.7143 16.2318 92.3051 16.996 90.3536 16.996C88.1597 16.996 86.3409 15.9439 84.9464 13.8655L84.9426 13.8618C84.8858 13.7696 84.8214 13.7216 84.7456 13.7216C84.7001 13.7216 84.6471 13.7363 84.594 13.7696L83.8665 14.1793C83.7415 14.2495 83.7263 14.3233 83.7263 14.3713C83.7263 14.4193 83.7415 14.471 83.7718 14.5263L85.799 18.2179C85.871 18.3434 85.9695 18.3988 86.1287 18.3988H86.9812C87.0798 18.4062 87.1139 18.3877 87.1214 18.3803C87.1328 18.3693 87.1404 18.3471 87.1404 18.3139C87.1404 18.2733 87.129 18.2216 87.1101 18.1551C87.057 17.9927 87.0646 17.8635 87.1252 17.7786C87.1555 17.738 87.2162 17.69 87.3223 17.69C87.398 17.69 87.4776 17.7122 87.5724 17.7528ZM98.0419 17.6494C98.4815 18.1256 99.0991 18.3656 99.8797 18.3656C101.024 18.3656 102.309 17.8377 103.127 17.343L103.836 16.9111C103.927 16.8557 103.972 16.793 103.972 16.7228C103.972 16.6785 103.953 16.6268 103.919 16.5752V16.5715L103.544 15.9845C103.449 15.8405 103.335 15.8184 103.191 15.907L103.165 15.9217C102.699 16.206 102.009 16.5862 101.441 16.5862C100.728 16.5862 100.369 16.0325 100.369 14.9361V8.29127H103.604C103.783 8.29127 103.858 8.21375 103.858 8.04393V7.05828C103.858 6.88478 103.779 6.81095 103.604 6.81095H100.361V2.92003C100.353 2.92372 100.342 2.9348 100.327 2.94957C99.2166 3.86877 97.8222 4.63292 97.4205 4.84703C97.3068 4.90979 97.2576 5.00946 97.2576 5.18297V6.81095H95.4539C95.2758 6.81095 95.2 6.88847 95.2 7.05828V7.74492C95.2 7.91842 95.2796 7.99225 95.4539 7.99225C97.2576 7.99225 97.2576 9.48734 97.2576 10.6908V14.9361C97.2462 16.1654 97.5152 17.0772 98.0419 17.6494ZM71.3697 18.1847C71.5592 18.1847 71.6501 18.0961 71.6501 17.9115V17.2249C71.6501 17.0403 71.5592 16.9517 71.3697 16.9517C70.2595 16.9517 69.566 16.0916 69.566 14.7035V0H69.5282C69.5206 0 69.4978 0.0184579 69.4827 0.025841L69.4637 0.0406073C68.9598 0.394998 67.626 1.32897 65.0266 2.17064C64.803 2.24448 64.7386 2.27032 64.7386 2.4069V3.18213C64.731 3.31503 64.7651 3.38886 64.9508 3.40732C66.2922 3.55129 66.4058 4.82119 66.4058 6.11324V14.7035C66.4058 17.6162 67.5388 18.2068 69.0848 18.2068C70.5133 18.2068 71.3697 18.1847 71.3697 18.1847Z" fill="white"/>
</svg>
